<svg id="visual" viewBox="0 0 900 50" width="900" height="50" xmlns="http://www.w3.org/2000/svg" xmlns:xlink="http://www.w3.org/1999/xlink" version="1.1"><path d="M0 7L16.7 8.7C33.3 10.3 66.7 13.7 100 19C133.3 24.3 166.7 31.7 200 35C233.3 38.3 266.7 37.7 300 35.2C333.3 32.7 366.7 28.3 400 24.3C433.3 20.3 466.7 16.7 500 15.5C533.3 14.3 566.7 15.7 600 19.5C633.3 23.3 666.7 29.7 700 32C733.3 34.3 766.7 32.7 800 29.5C833.3 26.3 866.7 21.7 883.3 19.3L900 17L900 51L883.3 51C866.7 51 833.3 51 800 51C766.7 51 733.3 51 700 51C666.7 51 633.3 51 600 51C566.7 51 533.3 51 500 51C466.7 51 433.3 51 400 51C366.7 51 333.3 51 300 51C266.7 51 233.3 51 200 51C166.7 51 133.3 51 100 51C66.7 51 33.3 51 16.7 51L0 51Z" fill="#748cab" stroke-linecap="round" stroke-linejoin="miter"></path></svg>