<svg id="visual" viewBox="0 0 900 50" width="900" height="50" xmlns="http://www.w3.org/2000/svg" xmlns:xlink="http://www.w3.org/1999/xlink" version="1.1"><path d="M0 20L18.8 21.8C37.7 23.7 75.3 27.3 112.8 30.7C150.3 34 187.7 37 225.2 38.3C262.7 39.7 300.3 39.3 337.8 33.5C375.3 27.7 412.7 16.3 450.2 15.7C487.7 15 525.3 25 562.8 31.5C600.3 38 637.7 41 675.2 40.5C712.7 40 750.3 36 787.8 34.5C825.3 33 862.7 34 881.3 34.5L900 35L900 51L881.3 51C862.7 51 825.3 51 787.8 51C750.3 51 712.7 51 675.2 51C637.7 51 600.3 51 562.8 51C525.3 51 487.7 51 450.2 51C412.7 51 375.3 51 337.8 51C300.3 51 262.7 51 225.2 51C187.7 51 150.3 51 112.8 51C75.3 51 37.7 51 18.8 51L0 51Z" fill="#f0ebd8" stroke-linecap="round" stroke-linejoin="miter"></path></svg>