<svg id="visual" viewBox="0 0 960 540" width="960" height="540" xmlns="http://www.w3.org/2000/svg" xmlns:xlink="http://www.w3.org/1999/xlink" version="1.1"><rect x="0" y="0" width="960" height="540" fill="#0d1321"></rect><g transform="translate(491.0650601953915 236.70500215417857)"><path d="M122.5 -160.2C133.6 -136.7 100 -74.2 94.7 -28C89.4 18.2 112.2 48.1 115.5 89.5C118.8 130.9 102.5 183.9 64.6 213.2C26.7 242.4 -32.8 248.1 -72.7 223.4C-112.7 198.6 -133 143.6 -141.7 97C-150.4 50.5 -147.6 12.5 -137.1 -20.1C-126.5 -52.8 -108.2 -80 -84.1 -101.3C-60 -122.5 -30 -137.7 12.9 -153.1C55.7 -168.4 111.4 -183.8 122.5 -160.2" fill="#1d2d44"></path></g></svg>