<svg id="visual" viewBox="0 0 960 200" width="960" height="200" xmlns="http://www.w3.org/2000/svg" xmlns:xlink="http://www.w3.org/1999/xlink" version="1.1"><rect x="0" y="0" width="960" height="200" fill="#0d1321"></rect><path d="M0 152L22.8 147.3C45.7 142.7 91.3 133.3 137 133.8C182.7 134.3 228.3 144.7 274 144.2C319.7 143.7 365.3 132.3 411.2 130.7C457 129 503 137 548.8 137.2C594.7 137.3 640.3 129.7 686 126.7C731.7 123.7 777.3 125.3 823 130.7C868.7 136 914.3 145 937.2 149.5L960 154L960 201L937.2 201C914.3 201 868.7 201 823 201C777.3 201 731.7 201 686 201C640.3 201 594.7 201 548.8 201C503 201 457 201 411.2 201C365.3 201 319.7 201 274 201C228.3 201 182.7 201 137 201C91.3 201 45.7 201 22.8 201L0 201Z" fill="#1d2d44" stroke-linecap="round" stroke-linejoin="miter"></path></svg>