<svg id="visual" viewBox="0 0 900 50" width="900" height="50" xmlns="http://www.w3.org/2000/svg" xmlns:xlink="http://www.w3.org/1999/xlink" version="1.1"><path d="M0 18L18.8 16.8C37.7 15.7 75.3 13.3 112.8 13.7C150.3 14 187.7 17 225.2 20.7C262.7 24.3 300.3 28.7 337.8 31.8C375.3 35 412.7 37 450.2 36.3C487.7 35.7 525.3 32.3 562.8 27.8C600.3 23.3 637.7 17.7 675.2 17.2C712.7 16.7 750.3 21.3 787.8 23.3C825.3 25.3 862.7 24.7 881.3 24.3L900 24L900 51L881.3 51C862.7 51 825.3 51 787.8 51C750.3 51 712.7 51 675.2 51C637.7 51 600.3 51 562.8 51C525.3 51 487.7 51 450.2 51C412.7 51 375.3 51 337.8 51C300.3 51 262.7 51 225.2 51C187.7 51 150.3 51 112.8 51C75.3 51 37.7 51 18.8 51L0 51Z" fill="#1d2d44" stroke-linecap="round" stroke-linejoin="miter"></path></svg>